<svg width="256" height="256" viewBox="0 0 256 256" fill="none" xmlns="http://www.w3.org/2000/svg">
<path d="M53.17 141.17C53.5415 140.798 53.9826 140.503 54.4682 140.302C54.9538 140.1 55.4743 139.997 56 139.997C56.5256 139.997 57.0461 140.1 57.5317 140.302C58.0173 140.503 58.4585 140.798 58.83 141.17L124 206.34L124 40C124 38.9391 124.421 37.9217 125.172 37.1716C125.922 36.4214 126.939 36 128 36C129.061 36 130.078 36.4214 130.828 37.1716C131.579 37.9217 132 38.9391 132 40L132 206.34L197.17 141.17C197.542 140.798 197.983 140.504 198.468 140.302C198.954 140.101 199.474 139.998 200 139.998C200.526 139.998 201.046 140.101 201.532 140.302C202.017 140.504 202.458 140.798 202.83 141.17C203.202 141.542 203.496 141.983 203.698 142.468C203.899 142.954 204.002 143.474 204.002 144C204.002 144.526 203.899 145.046 203.698 145.532C203.496 146.017 203.202 146.458 202.83 146.83L130.83 218.83C130.458 219.202 130.017 219.497 129.532 219.698C129.046 219.9 128.526 220.003 128 220.003C127.474 220.003 126.954 219.9 126.468 219.698C125.983 219.497 125.541 219.202 125.17 218.83L53.17 146.83C52.7981 146.459 52.503 146.017 52.3017 145.532C52.1004 145.046 51.9968 144.526 51.9968 144C51.9968 143.474 52.1004 142.954 52.3017 142.468C52.503 141.983 52.7981 141.541 53.17 141.17Z" fill="#200E00"/>
</svg>
