<svg width="96" height="68" viewBox="0 0 96 68" fill="none" xmlns="http://www.w3.org/2000/svg">
<g clip-path="url(#clip0_142_14)">
<path d="M46.9901 57.1697C46.449 57.1374 45.9111 57.0635 45.3815 56.9485C44.4752 56.6912 43.5689 56.6461 43.2063 57.5804C43.0115 58.0589 43.4012 58.772 43.5779 59.6116C43.3061 59.6116 42.7577 59.8102 42.3542 59.6432C40.8635 59.0248 40.3286 59.6432 40.3243 61.1644C39.0326 61.2636 37.9633 61.6157 37.7958 63.1549C37.7686 63.4212 37.0886 63.7959 36.6945 63.8139C33.7446 63.9719 33.5227 64.1705 33.4454 66.793L31.9771 65.9896L31.8187 67.8402C30.831 68.2916 30.1963 65.7142 28.8689 67.2083C27.6678 65.958 26.6843 66.0437 23.7121 67.7003C24.0113 67.2083 24.2283 66.8517 24.4731 66.459C23.2225 65.4073 22.7334 67.0684 21.5185 67.2218C24.0022 64.7934 22.5249 62.8751 21.3691 60.7942C21.0022 60.1397 21.2651 59.0383 21.4689 58.1988C21.6998 57.2599 22.2934 56.3933 22.5382 55.468C22.919 54.0236 23.1318 52.5386 23.5035 50.6247L24.863 52.1549C25.6998 51.4335 26.4923 50.6633 27.2374 49.8483C27.5094 49.5233 27.3915 48.8779 27.423 48.6387L21.4374 48.1872L21.3921 48.4671C21.5654 48.5215 21.7334 48.5909 21.895 48.6748C22.0662 48.8111 22.2257 48.9622 22.3707 49.1261L20.9339 49.9882C20.3222 48.1827 20.4811 45.8085 17.8891 45.3842C17.6353 45.3436 17.3361 45.5783 17.0689 45.6821C15.3787 44.4182 13.7654 42.8294 11.495 41.9583C12.1206 41.1548 12.9089 40.6041 11.6763 39.8187C11.3046 39.5885 11.4315 38.5594 11.3275 37.8914L10.6342 37.5619C10.4326 37.8993 10.2657 38.2562 10.1355 38.6271C9.65074 40.5906 8.04221 41.6333 6.70087 42.9061C5.97554 43.5923 5.43207 43.6419 4.71581 42.8655C4.08594 42.1794 3.12114 41.7732 2.59101 41.0601C1.57128 39.6517 0.0896742 38.1215 0.0262076 36.5959C-0.0601924 34.5467 1.26781 32.6057 3.24327 31.4502C4.92434 30.4708 6.50141 30.7822 7.91528 31.9874C9.20221 33.0842 10.4305 34.2442 11.7537 35.463C11.1329 33.856 12.6598 33.2964 13.5163 32.3033C13.7153 32.0686 13.7019 31.6533 13.9691 31.6127L16.4342 30.1141C16.7153 30.0645 17.2635 29.9517 17.8209 29.8884C18.3782 29.8253 19.0715 29.6312 19.6107 29.7892C20.5937 30.0935 21.5403 30.5037 22.4342 31.0124C22.9371 31.2877 23.2726 31.8565 23.7574 32.1724C24.9718 32.9623 25.479 34.2262 26.1542 35.3952C26.2587 35.5758 26.6801 35.5803 26.535 35.5352C26.9883 36.5869 27.2918 37.3407 27.6273 38.1396L28.8326 37.5393L29.1862 38.5368L31.9499 40.0625L34.0843 38.3428H32.6934C32.6934 36.9029 32.6934 35.5171 32.6934 34.1314C32.647 33.7568 32.6731 33.3767 32.7702 33.012C33.2641 31.9512 33.8038 30.9086 34.3974 29.902C34.991 28.8954 35.4577 27.6451 36.8849 27.3968C36.9803 27.3968 37.1297 27.3427 37.1478 27.2795C37.7414 25.5462 39.6038 25.7042 40.8001 24.8737C41.0582 24.6931 41.5974 24.9233 42.0779 24.9684L42.8937 21.8088C43.9495 22.5265 45.3543 22.5039 45.3769 24.0657C45.8019 24.1299 46.2299 24.1721 46.6593 24.1921C46.7182 24.323 46.9131 24.7879 47.1578 25.3657C48.6487 24.5171 50.2754 24.0928 50.5655 22.6574L54.3085 19.9491L55.3416 20.2109C55.7947 19.57 56.0984 18.8072 56.6603 18.3558C58.065 17.2273 57.3536 16.3472 56.624 15.2412C56.0304 14.3384 55.7631 13.2462 55.3507 12.2395L56.0214 11.9685L57.6209 15.4128C58.5272 15.8957 59.2795 16.3155 60.0362 16.6586C60.4305 16.8391 61.0331 17.1596 61.2597 17.0062C62.9092 15.8912 65.2338 15.8777 66.3395 13.8465C66.6987 13.2 67.1575 12.6135 67.699 12.1088C68.5417 11.3703 69.0768 10.345 69.1989 9.23366C69.5614 6.56147 70.232 3.92966 70.8211 1.2936C70.9557 0.886661 71.1663 0.508411 71.4419 0.179036C71.4827 0.120067 71.9359 0.233225 71.9404 0.287412C72.0337 0.742693 72.0337 1.21285 71.9404 1.66813C71.0613 4.08319 70.2048 6.48019 70.7713 9.12954C70.7949 9.32025 70.7758 9.51416 70.7154 9.69638C70.6551 9.87913 70.5551 10.0465 70.4224 10.1857C68.9768 11.5127 68.9632 13.3817 68.5055 15.0743C68.4285 15.3676 68.8046 15.7829 69.1762 16.0628C68.6505 18.419 70.8755 18.6447 72.0491 19.7596L73.6624 18.6447C73.5038 19.6828 72.1806 20.5585 73.4811 21.4297C74.2877 21.9713 75.1396 22.4453 76.1637 23.0682C75.919 23.8897 76.4583 24.3997 77.7543 24.2417C78.0352 26.2278 78.5518 28.0558 80.4731 28.7555C79.9224 29.3186 79.415 29.9221 78.9551 30.561C78.8645 30.71 79.3403 31.2065 79.73 31.8158C79.4808 33.7206 79.7617 34.7678 81.6468 34.6685C80.6499 35.6751 80.7088 36.2574 82.2178 37.5889C82.4761 36.2709 82.6981 35.147 82.9065 34.0773H89.731V34.163L85.2493 34.8897C83.5953 35.165 82.8477 36.7404 83.1512 38.3653C83.3642 39.4938 83.6769 40.2656 84.8143 40.3243C85.7054 40.3624 86.5956 40.2322 87.438 39.9406C90.2158 38.9611 92.9528 37.8823 95.7986 36.9886C95.1055 37.2887 94.428 37.6231 93.7685 37.9906C92.2006 38.9792 90.5965 39.9406 89.1509 41.0735C88.3126 41.728 86.6224 42.044 85.7614 41.3715C84.4019 40.3198 83.7811 40.5499 83.3416 42.1343C83.2464 42.4683 82.7253 42.7347 82.3492 42.9378C81.4429 43.4207 80.4777 43.7773 79.6303 44.3325C79.2542 44.5762 79.1183 45.1811 78.792 45.7679L81.7419 46.0297V46.3547H79.5261C79.9573 47.0944 80.4309 47.8087 80.9444 48.4942C81.5245 49.1713 81.4474 49.6271 80.668 49.9928C79.4672 50.5615 78.9869 51.4372 79.3086 52.7687C79.372 53.0305 79.0412 53.3916 78.8871 53.7076C78.7693 53.9559 78.5518 54.1906 78.5337 54.4434C78.57 55.0599 78.4678 55.6767 78.2346 56.2489C78.5155 56.6506 78.7965 57.0523 79.3358 57.8106L77.4552 57.4901C77.2694 58.5464 76.771 59.6432 78.3298 60.1397C78.4161 60.1862 78.4834 60.2612 78.5201 60.3519C78.9959 61.2907 79.4717 62.2341 80.0426 63.3761C79.1047 62.8525 78.0941 62.4734 77.2966 61.8008C76.3042 60.9928 75.3662 61.5119 74.5279 61.8008C74.1155 61.9498 73.975 62.857 73.7666 63.3084C73.1911 63.1233 72.4389 62.6719 71.7048 62.699C70.5538 62.7442 69.439 63.0466 68.2835 62.5546C68.1113 62.4824 67.6446 62.9834 67.3772 63.2723C66.9512 63.7237 66.5751 64.2111 66.1763 64.6851C65.8229 64.0486 65.4377 63.4257 65.1386 62.7667C65.0798 62.4414 65.0798 62.1081 65.1386 61.7827C63.7203 61.7151 63.9967 60.6543 64.0194 60.072C62.8729 58.8398 61.4909 57.937 61.1011 56.7183C60.8564 55.9735 60.6933 55.0301 60.1495 54.6465C59.429 54.1364 58.3958 53.992 57.476 53.9017C57.2766 53.9017 56.905 54.7187 56.7554 55.2062C56.4609 56.1856 55.7449 56.2308 54.0366 55.1701L55.9896 54.0145C55.8401 53.6534 55.6815 53.2878 55.5818 53.0576C56.0307 52.9763 56.4637 52.8239 56.8642 52.6062C56.9684 52.516 56.6875 51.9517 56.5832 51.6087C56.189 51.7803 55.6769 51.8524 55.4186 52.1413C54.6528 52.9809 53.9822 53.9062 53.2481 54.8496C52.7542 54.0823 52.5819 52.516 51.2497 52.9087C50.7966 51.5545 50.4069 50.3584 49.9854 49.1487C49.8585 48.7876 49.4779 48.4175 49.5323 48.106C49.8087 46.4856 48.3949 46.639 47.5792 46.2012C47.4251 46.1199 46.972 46.3141 46.8496 46.5036C46.2334 47.4831 45.821 48.6387 45.0371 49.4511C44.6429 49.8619 43.6232 49.6723 42.5446 49.7942C42.6582 50.2455 42.6171 51.2521 43.0478 51.5319C43.5689 51.875 44.4888 51.6132 45.4539 51.6132C44.6474 52.1052 43.7139 52.3715 43.4692 52.9313C43.297 53.3329 44.0039 54.168 44.4162 54.7368C44.8861 55.3628 45.4042 55.9514 45.966 56.4971C46.2831 56.7729 46.6226 57.022 46.981 57.2419L46.9901 57.1697Z" fill="white"/>
</g>
<defs>
<clipPath id="clip0_142_14">
<rect width="96" height="68" fill="white" transform="matrix(-1 0 0 -1 96 68)"/>
</clipPath>
</defs>
</svg>
