<svg width="71" height="50" viewBox="0 0 71 50" fill="none" xmlns="http://www.w3.org/2000/svg">
<g clip-path="url(#clip0_136_9)">
<path d="M36.0979 7.88558C36.4981 7.9093 36.8959 7.96367 37.2877 8.04824C37.9579 8.23742 38.6282 8.27059 38.8964 7.58355C39.0405 7.23176 38.7522 6.70738 38.6215 6.09004C38.8226 6.09004 39.2281 5.94402 39.5266 6.0668C40.629 6.52152 41.0247 6.0668 41.0278 4.94832C41.9832 4.87531 42.774 4.61644 42.8979 3.48467C42.918 3.28885 43.4209 3.01338 43.7124 3.0001C45.8941 2.88394 46.0582 2.73791 46.1154 0.809597L47.2013 1.40037L47.3184 0.0396026C48.0489 -0.292292 48.5183 1.60283 49.5001 0.504257C50.3884 1.4236 51.1157 1.36054 53.314 0.14249C53.0927 0.504257 52.9322 0.766452 52.7511 1.0552C53.6761 1.82851 54.0378 0.607144 54.9363 0.494296C53.0994 2.27989 54.192 3.69044 55.0468 5.22047C55.3182 5.70172 55.1237 6.51156 54.973 7.12887C54.8022 7.81922 54.3632 8.45644 54.1821 9.13684C53.9005 10.1989 53.7431 11.2908 53.4682 12.6981L52.4628 11.5729C51.8439 12.1034 51.2577 12.6697 50.7067 13.2689C50.5055 13.5079 50.5927 13.9825 50.5694 14.1584L54.9963 14.4903L55.0298 14.2845C54.9016 14.2446 54.7774 14.1935 54.6579 14.1318C54.5312 14.0316 54.4133 13.9205 54.306 13.8L55.3686 13.1661C55.8211 14.4936 55.7035 16.2394 57.6205 16.5514C57.8083 16.5812 58.0296 16.4087 58.2272 16.3323C59.4772 17.2616 60.6704 18.4299 62.3495 19.0704C61.8868 19.6612 61.3038 20.0661 62.2154 20.6436C62.4903 20.8129 62.3965 21.5696 62.4734 22.0608L62.9862 22.3031C63.1353 22.055 63.2587 21.7925 63.355 21.5198C63.7135 20.0761 64.9032 19.3094 65.8952 18.3735C66.4316 17.869 66.8336 17.8325 67.3633 18.4034C67.8291 18.9078 68.5427 19.2065 68.9348 19.7309C69.6889 20.7664 70.7847 21.8916 70.8317 23.0134C70.8956 24.5202 69.9134 25.9473 68.4524 26.797C67.2091 27.5171 66.0427 27.2882 64.997 26.402C64.0452 25.5955 63.1368 24.7425 62.1582 23.8464C62.6173 25.028 61.4881 25.4395 60.8546 26.1697C60.7074 26.3423 60.7173 26.6476 60.5197 26.6775L58.6966 27.7794C58.4887 27.8159 58.0832 27.8988 57.671 27.9453C57.2588 27.9918 56.746 28.1345 56.3473 28.0183C55.6203 27.7945 54.9202 27.4929 54.2591 27.1189C53.8871 26.9164 53.639 26.4982 53.2805 26.2659C52.3823 25.6851 52.0072 24.7558 51.5078 23.8962C51.4305 23.7634 51.1189 23.7601 51.2262 23.7933C50.8909 23.02 50.6665 22.4657 50.4184 21.8783L49.5269 22.3197L49.2654 21.5862L47.2214 20.4644L45.6428 21.7289H46.6715C46.6715 22.7877 46.6715 23.8066 46.6715 24.8255C46.7058 25.1009 46.6865 25.3804 46.6147 25.6486C46.2495 26.4286 45.8503 27.1952 45.4113 27.9353C44.9723 28.6755 44.6271 29.5948 43.5716 29.7774C43.501 29.7774 43.3905 29.8172 43.3771 29.8637C42.9381 31.1381 41.5607 31.022 40.676 31.6327C40.4851 31.7654 40.0863 31.5962 39.7309 31.563L39.1276 33.8862C38.3467 33.3585 37.3078 33.3751 37.291 32.2268C36.9767 32.1795 36.6601 32.1485 36.3426 32.1338C36.299 32.0376 36.1549 31.6957 35.9739 31.2709C34.8713 31.8948 33.6682 32.2068 33.4537 33.2623L30.6854 35.2536L29.9213 35.0611C29.5862 35.5324 29.3616 36.0933 28.946 36.4252C27.9071 37.255 28.4333 37.9021 28.9729 38.7153C29.4119 39.3791 29.6096 40.1823 29.9146 40.9225L29.4186 41.1217L28.2356 38.5892C27.5653 38.2341 27.0089 37.9254 26.4492 37.6732C26.1577 37.5404 25.7119 37.3047 25.5444 37.4176C24.3244 38.2374 22.6052 38.2473 21.7875 39.7409C21.5218 40.2162 21.1825 40.6475 20.782 41.0186C20.1587 41.5616 19.763 42.3155 19.6727 43.1327C19.4046 45.0975 18.9086 47.0327 18.4729 48.9709C18.3734 49.2702 18.2176 49.5483 18.0138 49.7905C17.9836 49.8338 17.6485 49.7506 17.6451 49.7108C17.5761 49.376 17.5761 49.0303 17.6451 48.6955C18.2953 46.9198 18.9287 45.1573 18.5098 43.2092C18.4923 43.069 18.5065 42.9264 18.5511 42.7924C18.5957 42.658 18.6697 42.535 18.7678 42.4327C19.8369 41.4569 19.847 40.0827 20.1855 38.8381C20.2425 38.6224 19.9643 38.317 19.6895 38.1112C20.0782 36.3787 18.4327 36.2128 17.5647 35.393L16.3716 36.2128C16.4889 35.4495 17.4675 34.8056 16.5056 34.165C15.9091 33.7668 15.279 33.4182 14.5216 32.9602C14.7026 32.3562 14.3038 31.9812 13.3453 32.0973C13.1375 30.637 12.7554 29.2928 11.3344 28.7784C11.7417 28.3643 12.1171 27.9206 12.4571 27.4508C12.5242 27.3412 12.1723 26.9762 11.8841 26.5281C12.0684 25.1275 11.8606 24.3575 10.4664 24.4305C11.2037 23.6904 11.1602 23.2623 10.0441 22.2832C9.8531 23.2523 9.68889 24.0787 9.53475 24.8653H4.48751V24.8023L7.80207 24.2679C9.02532 24.0655 9.57829 22.9071 9.35377 21.7123C9.19623 20.8826 8.96501 20.315 8.12378 20.2719C7.46478 20.2439 6.80637 20.3396 6.18335 20.554C4.12892 21.2742 2.10468 22.0675 0 22.7246C0.51257 22.5039 1.01367 22.258 1.50143 21.9878C2.66101 21.2609 3.84741 20.554 4.91651 19.721C5.5365 19.2397 6.78657 19.0074 7.42336 19.5019C8.42876 20.2752 8.8879 20.106 9.213 18.941C9.28337 18.6954 9.66878 18.4996 9.94694 18.3502C10.6172 17.9951 11.3311 17.7329 11.9578 17.3247C12.2359 17.1455 12.3365 16.7007 12.5778 16.2693L10.3961 16.0768V15.8378H12.0349C11.716 15.2939 11.3657 14.7686 10.9859 14.2646C10.5569 13.7668 10.6139 13.4316 11.1903 13.1627C12.0784 12.7445 12.4337 12.1007 12.1957 11.1216C12.1488 10.9291 12.3935 10.6636 12.5074 10.4312C12.5946 10.2487 12.7554 10.0761 12.7688 9.89023C12.742 9.43691 12.8175 8.9834 12.99 8.56266C12.7822 8.26727 12.5745 7.97187 12.1756 7.4143L13.5665 7.64996C13.7039 6.87332 14.0725 6.0668 12.9196 5.70172C12.8558 5.66754 12.806 5.61238 12.7789 5.54574C12.427 4.85539 12.0751 4.16172 11.6528 3.32204C12.3465 3.70704 13.0939 3.98582 13.6837 4.48035C14.4177 5.07445 15.1115 4.69277 15.7315 4.48035C16.0365 4.37082 16.1403 3.70372 16.2945 3.37183C16.7201 3.5079 17.2765 3.8398 17.8194 3.81988C18.6706 3.78669 19.4951 3.56432 20.3497 3.92609C20.4771 3.97918 20.8222 3.61079 21.02 3.39838C21.335 3.06648 21.6132 2.70804 21.9081 2.35955C22.1695 2.82752 22.4544 3.28553 22.6756 3.7701C22.7191 4.00934 22.7191 4.25437 22.6756 4.49363C23.7246 4.5434 23.5201 5.32336 23.5034 5.75152C24.3513 6.65758 25.3734 7.32137 25.6616 8.2175C25.8427 8.76512 25.9633 9.45879 26.3655 9.7409C26.8983 10.1159 27.6625 10.2221 28.3428 10.2885C28.4902 10.2885 28.7651 9.68777 28.8757 9.32934C29.0935 8.60914 29.623 8.57594 30.8865 9.3559L29.442 10.2055C29.5526 10.4711 29.67 10.7399 29.7437 10.9091C29.4117 10.969 29.0915 11.081 28.7952 11.2411C28.7182 11.3074 28.9259 11.7223 29.003 11.9745C29.2946 11.8484 29.6733 11.7953 29.8643 11.5829C30.4307 10.9656 30.9267 10.2852 31.4696 9.59152C31.8349 10.1557 31.9623 11.3074 32.9476 11.0187C33.2827 12.0144 33.571 12.8939 33.8827 13.7834C33.9765 14.0489 34.258 14.321 34.2178 14.55C34.0133 15.7416 35.059 15.6287 35.6622 15.9506C35.7762 16.0104 36.1113 15.8677 36.2018 15.7283C36.6576 15.008 36.9626 14.1584 37.5424 13.561C37.8339 13.259 38.588 13.3984 39.3857 13.3087C39.3017 12.9769 39.3321 12.2367 39.0136 12.031C38.6282 11.7787 37.9479 11.9712 37.2341 11.9712C37.8306 11.6095 38.521 11.4136 38.7019 11.0021C38.8293 10.7067 38.3065 10.0927 38.0015 9.67449C37.6541 9.21418 37.2708 8.78137 36.8554 8.38012C36.6208 8.17734 36.3697 7.99418 36.1046 7.8325L36.0979 7.88558Z" fill="white"/>
</g>
<defs>
<clipPath id="clip0_136_9">
<rect width="71" height="50" fill="white"/>
</clipPath>
</defs>
</svg>
