<svg width="132" height="94" viewBox="0 0 132 94" fill="none" xmlns="http://www.w3.org/2000/svg">
<g clip-path="url(#clip0_9_2)">
<path d="M67.3887 14.9713C68.1328 15.0159 68.8723 15.1181 69.6006 15.2771C70.8468 15.6328 72.0929 15.6951 72.5914 14.4035C72.8593 13.7421 72.3235 12.7563 72.0804 11.5957C72.4543 11.5957 73.2082 11.3212 73.7631 11.552C75.8127 12.4069 76.5483 11.552 76.5541 9.44926C78.3303 9.31201 79.8006 8.82534 80.0309 6.69761C80.0683 6.32946 81.0033 5.81157 81.5452 5.78662C85.6013 5.56823 85.9063 5.29369 86.0127 1.66847L88.0315 2.77912L88.2493 0.220876C89.6075 -0.403086 90.4801 3.15974 92.3054 1.09443C93.9569 2.8228 95.3091 2.70424 99.396 0.414305C98.9846 1.09443 98.6861 1.58735 98.3495 2.1302C100.069 3.58403 100.742 1.28785 102.412 1.0757C98.9971 4.43262 101.028 7.08446 102.618 9.9609C103.122 10.8657 102.761 12.3882 102.48 13.5487C102.163 14.8466 101.347 16.0445 101.01 17.3237C100.486 19.3204 100.194 21.3732 99.6827 24.0188L97.8135 21.9035C96.6629 22.9007 95.5731 23.9654 94.5487 25.092C94.1747 25.5413 94.3367 26.4335 94.2935 26.7642L102.524 27.3882L102.586 27.0013C102.348 26.9262 102.117 26.8302 101.894 26.7143C101.659 26.5258 101.44 26.317 101.24 26.0903L103.216 24.8986C104.057 27.3945 103.839 30.6764 107.403 31.263C107.752 31.3192 108.163 30.9947 108.53 30.8512C110.854 32.5983 113.073 34.7946 116.194 35.9988C115.334 37.1095 114.25 37.8708 115.945 38.9565C116.456 39.2747 116.282 40.6973 116.425 41.6208L117.378 42.0762C117.655 41.6097 117.885 41.1164 118.064 40.6037C118.73 37.8895 120.942 36.4481 122.786 34.6886C123.784 33.7401 124.531 33.6715 125.516 34.7447C126.382 35.6931 127.709 36.2547 128.437 37.2405C129.84 39.1873 131.877 41.3026 131.964 43.4115C132.083 46.2443 130.257 48.9274 127.541 50.5247C125.229 51.8787 123.061 51.4482 121.117 49.7822C119.347 48.266 117.658 46.6624 115.839 44.9777C116.692 47.199 114.593 47.9727 113.415 49.3454C113.142 49.6699 113.16 50.2439 112.793 50.3L109.403 52.3716C109.017 52.4402 108.263 52.5962 107.496 52.6836C106.73 52.7709 105.777 53.0393 105.035 52.8209C103.684 52.4001 102.382 51.8331 101.153 51.13C100.462 50.7493 100 49.9631 99.3337 49.5264C97.6639 48.4344 96.9665 46.6874 96.0381 45.0713C95.8943 44.8217 95.315 44.8154 95.5145 44.8779C94.8911 43.424 94.4739 42.382 94.0126 41.2776L92.3553 42.1074L91.8691 40.7285L88.0689 38.6195L85.1341 40.9968H87.0467C87.0467 42.9872 87.0467 44.9028 87.0467 46.8184C87.1105 47.3362 87.0745 47.8616 86.9411 48.3658C86.262 49.8321 85.5199 51.2735 84.7037 52.6649C83.8875 54.0563 83.2458 55.7847 81.2834 56.1279C81.1521 56.1279 80.9468 56.2027 80.9219 56.2901C80.1057 58.6861 77.5449 58.4678 75.9 59.6158C75.5451 59.8654 74.8037 59.5472 74.1429 59.4848L73.0213 63.8525C71.5695 62.8604 69.638 62.8916 69.6068 60.7327C69.0225 60.6439 68.4339 60.5856 67.8435 60.558C67.7626 60.3771 67.4946 59.7343 67.1582 58.9357C65.1082 60.1087 62.8714 60.6953 62.4726 62.6795L57.326 66.4232L55.9054 66.0614C55.2823 66.9474 54.8649 68.0019 54.0922 68.6259C52.1607 70.1857 53.139 71.4025 54.1421 72.9312C54.9583 74.1792 55.3259 75.6891 55.8929 77.0807L54.9707 77.4553L52.7713 72.6941C51.5252 72.0265 50.4908 71.4462 49.4503 70.972C48.9082 70.7224 48.0795 70.2793 47.768 70.4915C45.5 72.0327 42.3036 72.0514 40.7833 74.8592C40.2893 75.753 39.6586 76.5637 38.9141 77.2614C37.7552 78.2822 37.0196 79.6995 36.8517 81.2358C36.3533 84.9297 35.4311 88.5678 34.621 92.2118C34.436 92.7743 34.1464 93.2972 33.7674 93.7525C33.7114 93.834 33.0883 93.6776 33.0821 93.6027C32.9538 92.9733 32.9538 92.3234 33.0821 91.6941C34.2908 88.3556 35.4685 85.0421 34.6896 81.3798C34.6572 81.1161 34.6834 80.8481 34.7664 80.5962C34.8493 80.3436 34.9869 80.1122 35.1694 79.9198C37.157 78.0854 37.1757 75.5018 37.805 73.162C37.9109 72.7565 37.3938 72.1824 36.8829 71.7956C37.6056 68.5385 34.5463 68.2265 32.9325 66.6853L30.7144 68.2265C30.9325 66.7914 32.7519 65.5809 30.9636 64.3766C29.8545 63.6279 28.6832 62.9727 27.275 62.1117C27.6115 60.976 26.87 60.271 25.088 60.4894C24.7017 57.744 23.9914 55.2169 21.3495 54.2497C22.1068 53.4714 22.8046 52.6371 23.4368 51.7539C23.5615 51.548 22.9072 50.8616 22.3714 50.0193C22.7141 47.3862 22.3277 45.9386 19.7358 46.0759C21.1065 44.6844 21.0256 43.8795 18.9507 42.0388C18.5955 43.8608 18.2902 45.4145 18.0036 46.8932H8.62005V46.7747L14.7823 45.7701C17.0565 45.3895 18.0846 43.2119 17.6672 40.9656C17.3743 39.4057 16.9444 38.3387 15.3804 38.2576C14.1553 38.2049 12.9312 38.3849 11.7729 38.788C7.95338 40.142 4.18999 41.6333 0.277069 42.8687C1.23002 42.4538 2.16164 41.9916 3.06845 41.4835C5.22431 40.117 7.43 38.788 9.41762 37.2219C10.5703 36.3171 12.8944 35.8803 14.0782 36.81C15.9474 38.2639 16.801 37.9457 17.4055 35.7555C17.5363 35.2938 18.2528 34.9256 18.77 34.6449C20.0161 33.9772 21.3433 33.4843 22.5084 32.7168C23.0256 32.3799 23.2125 31.5437 23.6612 30.7326L19.6049 30.3707V29.9214H22.6518C22.0589 28.899 21.4077 27.9115 20.7016 26.9639C19.904 26.0279 20.0099 25.3978 21.0816 24.8924C22.7328 24.1061 23.3932 22.8957 22.9509 21.055C22.8636 20.6931 23.3185 20.1939 23.5303 19.7571C23.6923 19.4139 23.9914 19.0895 24.0163 18.7401C23.9664 17.8878 24.1069 17.0352 24.4276 16.2442C24.0412 15.6889 23.6549 15.1335 22.9135 14.0853L25.4993 14.5283C25.7547 13.0683 26.4401 11.552 24.2967 10.8657C24.178 10.8014 24.0855 10.6977 24.035 10.5724C23.3807 9.27456 22.7265 7.97045 21.9415 6.39186C23.2312 7.11566 24.6207 7.63976 25.7173 8.56948C27.0819 9.68639 28.3717 8.96884 29.5243 8.56948C30.0913 8.36356 30.2845 7.10942 30.5711 6.48546C31.3624 6.74128 32.3967 7.36525 33.4061 7.3278C34.9887 7.26541 36.5215 6.84735 38.1103 7.52748C38.3471 7.62728 38.9888 6.93471 39.3565 6.53537C39.9422 5.91141 40.4593 5.23753 41.0076 4.58237C41.4936 5.46216 42.0232 6.32323 42.4345 7.23421C42.5154 7.68397 42.5154 8.14465 42.4345 8.59445C44.3847 8.68801 44.0046 10.1543 43.9735 10.9593C45.5498 12.6627 47.4502 13.9106 47.986 15.5953C48.3226 16.6248 48.5468 17.9289 49.2945 18.4593C50.2853 19.1644 51.7059 19.3641 52.9707 19.4888C53.2449 19.4888 53.7558 18.3594 53.9614 17.6856C54.3664 16.3316 55.3508 16.2692 57.6999 17.7355L55.0144 19.3328C55.22 19.832 55.4381 20.3374 55.5752 20.6556C54.9579 20.7681 54.3626 20.9787 53.8119 21.2796C53.6686 21.4044 54.0548 22.1844 54.1982 22.6585C54.7403 22.4214 55.4443 22.3216 55.7995 21.9223C56.8525 20.7617 57.7747 19.4826 58.784 18.1785C59.4632 19.2392 59.6999 21.4044 61.5318 20.8615C62.1549 22.7334 62.6907 24.387 63.2702 26.0591C63.4446 26.5583 63.968 27.0699 63.8932 27.5005C63.5131 29.7406 65.4571 29.5284 66.5787 30.1336C66.7905 30.246 67.4136 29.9776 67.5819 29.7156C68.4293 28.3615 68.9963 26.7642 70.0741 25.6411C70.6162 25.0733 72.0182 25.3353 73.5013 25.1669C73.3451 24.5429 73.4015 23.1515 72.8094 22.7647C72.0929 22.2904 70.8281 22.6523 69.5009 22.6523C70.61 21.9722 71.8935 21.6041 72.23 20.8303C72.4668 20.2751 71.4948 19.1207 70.9278 18.3345C70.2818 17.4691 69.5693 16.6554 68.7969 15.901C68.3608 15.5198 67.894 15.1755 67.4012 14.8715L67.3887 14.9713Z" fill="white"/>
</g>
<defs>
<clipPath id="clip0_9_2">
<rect width="132" height="94" fill="white"/>
</clipPath>
</defs>
</svg>
