<svg width="21" height="21" viewBox="0 0 21 21" fill="none" xmlns="http://www.w3.org/2000/svg">
<g clip-path="url(#clip0_5_10)">
<path d="M7.65021 17.4769C7.9136 17.3939 8.05986 17.1132 7.9769 16.8498C7.89394 16.5864 7.61317 16.4401 7.34978 16.5231L7.65021 17.4769ZM2.55197 13.7164L2.06836 13.5894L1.81442 14.5566L2.29803 14.6836L2.55197 13.7164ZM13 20.5V21H14V20.5H13ZM13 13.5L12.9465 13.0029C12.7548 13.0235 12.592 13.1525 12.5282 13.3344C12.4643 13.5164 12.5108 13.7188 12.6476 13.8547L13 13.5ZM17.5 8.2775H18V8.27589L17.5 8.2775ZM16.3336 5.46875L15.8675 5.28774C15.7959 5.47224 15.8398 5.68164 15.9795 5.8218L16.3336 5.46875ZM16.2636 2.64512L16.7201 2.44124C16.6599 2.30632 16.543 2.20496 16.401 2.16436L16.2636 2.64512ZM13.2221 3.75375L13.096 4.23758C13.2315 4.27292 13.3757 4.24976 13.4934 4.17375L13.2221 3.75375ZM7.77786 3.75375L7.50665 4.1738C7.62431 4.24977 7.76845 4.27291 7.90397 4.23758L7.77786 3.75375ZM4.73636 2.64512L4.59888 2.1644C4.45685 2.20501 4.34005 2.30636 4.27982 2.44124L4.73636 2.64512ZM4.66636 5.46875L5.02039 5.82183C5.16017 5.68167 5.2041 5.47225 5.13244 5.28774L4.66636 5.46875ZM3.49999 8.30025H3.99999L3.99998 8.29897L3.49999 8.30025ZM8 13.5L8.35295 13.8542C8.48866 13.7189 8.53515 13.518 8.47264 13.3369C8.41014 13.1558 8.24964 13.0263 8.05941 13.0035L8 13.5ZM7.5 15.6H8C8 15.5878 7.99955 15.5756 7.99865 15.5634L7.5 15.6ZM7 20.5V21H8V20.5H7ZM7.34978 16.5231C6.4789 16.7974 5.89864 16.7754 5.49249 16.6414C5.08782 16.5078 4.78704 16.2406 4.51528 15.8863C4.3782 15.7076 4.25349 15.5134 4.12638 15.3077C4.00371 15.1091 3.8716 14.8874 3.73712 14.6891C3.474 14.3011 3.11527 13.8643 2.55197 13.7164L2.29803 14.6836C2.4846 14.7326 2.6664 14.8919 2.90947 15.2503C3.02808 15.4253 3.14048 15.6145 3.27561 15.8332C3.40629 16.0448 3.55267 16.2744 3.72184 16.495C4.06258 16.9391 4.51495 17.3718 5.1791 17.591C5.84176 17.8097 6.64597 17.7932 7.65021 17.4769L7.34978 16.5231ZM14 15.5125C14 14.6987 14.052 13.8402 13.3523 13.1453L12.6476 13.8547C12.9962 14.201 13 14.5763 13 15.5125H14ZM13.0534 13.9971C14.3014 13.863 15.5637 13.5658 16.5061 12.6903C17.464 11.8003 18 10.4025 18 8.2775H17C17 10.2423 16.507 11.3244 15.8254 11.9577C15.1284 12.6053 14.1406 12.8745 12.9465 13.0029L13.0534 13.9971ZM18 8.27589C17.9962 7.0907 17.5245 5.95496 16.6877 5.1157L15.9795 5.8218C16.6303 6.47439 16.997 7.35753 17 8.27911L18 8.27589ZM16.7997 5.64976C16.9991 5.13623 17.0948 4.58826 17.0811 4.03754L16.0814 4.06232C16.0918 4.48092 16.0191 4.89741 15.8675 5.28774L16.7997 5.64976ZM17.0811 4.03754C17.0675 3.48681 16.9448 2.94425 16.7201 2.44124L15.8071 2.84901C15.9778 3.23134 16.0711 3.64373 16.0814 4.06232L17.0811 4.03754ZM16.2636 2.64512C16.401 2.16436 16.4005 2.16423 16.4 2.16409C16.3999 2.16405 16.3994 2.16391 16.399 2.16382C16.3984 2.16364 16.3977 2.16345 16.397 2.16326C16.3957 2.16288 16.3943 2.16249 16.3928 2.1621C16.3898 2.1613 16.3866 2.16046 16.3832 2.1596C16.3763 2.15787 16.3685 2.15601 16.3598 2.1541C16.3423 2.15026 16.321 2.14618 16.296 2.14233C16.2458 2.13462 16.1807 2.12786 16.1002 2.12571C15.939 2.12141 15.7183 2.13565 15.4344 2.1963C14.8674 2.31745 14.051 2.62312 12.9508 3.33375L13.4934 4.17375C14.516 3.51325 15.2203 3.26461 15.6434 3.17423C15.8545 3.12912 15.9961 3.12329 16.0735 3.12535C16.1124 3.12639 16.1356 3.12943 16.144 3.13072C16.1482 3.13136 16.1488 3.13159 16.1458 3.13093C16.1443 3.1306 16.1419 3.13005 16.1386 3.12923C16.137 3.12882 16.1351 3.12834 16.1331 3.12778C16.132 3.1275 16.131 3.12721 16.1298 3.12689C16.1292 3.12674 16.1287 3.12657 16.1281 3.1264C16.1278 3.12632 16.1282 3.12644 16.1281 3.1264C16.1276 3.12627 16.1262 3.12589 16.2636 2.64512ZM13.3482 3.26992C11.4806 2.7831 9.51937 2.7831 7.65175 3.26992L7.90397 4.23758C9.60621 3.79388 11.3938 3.79388 13.096 4.23758L13.3482 3.26992ZM8.04907 3.33369C6.94851 2.62311 6.13215 2.31745 5.56524 2.1963C5.28141 2.13565 5.06074 2.12141 4.89961 2.12571C4.81916 2.12786 4.75407 2.13462 4.70391 2.14234C4.67886 2.14619 4.6576 2.15028 4.64009 2.15412C4.63134 2.15603 4.62353 2.15789 4.61666 2.15962C4.61323 2.16049 4.61003 2.16133 4.60707 2.16213C4.60558 2.16252 4.60416 2.16291 4.6028 2.16329C4.60211 2.16348 4.60145 2.16367 4.60079 2.16385C4.60047 2.16395 4.60095 2.1638 4.60079 2.16385C4.60031 2.16398 4.59888 2.1644 4.73636 2.64512C4.87384 3.12585 4.87338 3.12598 4.87292 3.12612C4.87277 3.12616 4.87322 3.12604 4.87292 3.12612C4.87232 3.12629 4.87083 3.1267 4.87026 3.12686C4.86912 3.12718 4.86803 3.12747 4.867 3.12775C4.86494 3.12831 4.86309 3.12879 4.86145 3.1292C4.85819 3.13003 4.85579 3.13058 4.85428 3.13091C4.85126 3.13157 4.85179 3.13135 4.85598 3.13071C4.86431 3.12943 4.88753 3.12639 4.92631 3.12535C5.00365 3.12329 5.14517 3.12911 5.35626 3.17422C5.77919 3.26461 6.48359 3.51326 7.50665 4.1738L8.04907 3.33369ZM4.27982 2.44124C4.05518 2.94425 3.93248 3.48681 3.91883 4.03754L4.91852 4.06232C4.9289 3.64373 5.02216 3.23134 5.1929 2.84901L4.27982 2.44124ZM3.91883 4.03754C3.90518 4.58826 4.00084 5.13623 4.20028 5.64976L5.13244 5.28774C4.98085 4.89741 4.90815 4.48092 4.91852 4.06232L3.91883 4.03754ZM4.31233 5.11567C3.89482 5.53431 3.564 6.03119 3.3388 6.57787L4.26343 6.95875C4.43852 6.53368 4.69576 6.14733 5.02039 5.82183L4.31233 5.11567ZM3.3388 6.57787C3.11361 7.12455 2.99847 7.71029 2.99999 8.30153L3.99998 8.29897C3.99881 7.83925 4.08833 7.38382 4.26343 6.95875L3.3388 6.57787ZM2.99999 8.30025C2.99999 10.4117 3.53674 11.7967 4.49524 12.6806C5.4363 13.5484 6.69671 13.8476 7.94059 13.9965L8.05941 13.0035C6.86116 12.8601 5.87156 12.5895 5.17315 11.9455C4.49217 11.3175 3.99999 10.2488 3.99999 8.30025H2.99999ZM7.64704 13.1458C7.29106 13.5006 7.12191 13.9561 7.04432 14.3865C6.96667 14.8172 6.97375 15.261 7.00134 15.6366L7.99865 15.5634C7.97374 15.2242 7.97227 14.8756 8.02846 14.5639C8.08471 14.2518 8.19181 14.0147 8.35295 13.8542L7.64704 13.1458ZM7 15.6V20.5H8V15.6H7ZM14 20.5V15.5125H13V20.5H14Z" fill="#12F3D8"/>
</g>
<defs>
<clipPath id="clip0_5_10">
<rect width="21" height="21" fill="white"/>
</clipPath>
</defs>
</svg>
