<svg width="21" height="21" viewBox="0 0 21 21" fill="none" xmlns="http://www.w3.org/2000/svg">
<g clip-path="url(#clip0_32_22)">
<path d="M7.65024 17.4769C7.91363 17.3939 8.05989 17.1132 7.97693 16.8498C7.89397 16.5864 7.6132 16.4401 7.34981 16.5231L7.65024 17.4769ZM2.552 13.7164L2.06839 13.5894L1.81445 14.5566L2.29806 14.6836L2.552 13.7164ZM13 20.5V21H14V20.5H13ZM13 13.5L12.9465 13.0029C12.7548 13.0235 12.592 13.1525 12.5282 13.3344C12.4643 13.5164 12.5108 13.7188 12.6476 13.8547L13 13.5ZM17.5 8.2775H18V8.27589L17.5 8.2775ZM16.3336 5.46875L15.8675 5.28774C15.7959 5.47224 15.8398 5.68164 15.9795 5.8218L16.3336 5.46875ZM16.2636 2.64512L16.7201 2.44124C16.6599 2.30632 16.543 2.20496 16.401 2.16436L16.2636 2.64512ZM13.2221 3.75375L13.096 4.23758C13.2315 4.27292 13.3757 4.24976 13.4934 4.17375L13.2221 3.75375ZM7.77789 3.75375L7.50668 4.1738C7.62434 4.24977 7.76848 4.27291 7.904 4.23758L7.77789 3.75375ZM4.73639 2.64512L4.59891 2.1644C4.45688 2.20501 4.34008 2.30636 4.27985 2.44124L4.73639 2.64512ZM4.66639 5.46875L5.02042 5.82183C5.1602 5.68167 5.20413 5.47225 5.13247 5.28774L4.66639 5.46875ZM3.50002 8.30025H4.00002L4.00001 8.29897L3.50002 8.30025ZM8.00003 13.5L8.35298 13.8542C8.48869 13.7189 8.53518 13.518 8.47267 13.3369C8.41017 13.1558 8.24967 13.0263 8.05944 13.0035L8.00003 13.5ZM7.50003 15.6H8.00003C8.00003 15.5878 7.99958 15.5756 7.99868 15.5634L7.50003 15.6ZM7.00003 20.5V21H8.00003V20.5H7.00003ZM7.34981 16.5231C6.47893 16.7974 5.89867 16.7754 5.49252 16.6414C5.08785 16.5078 4.78707 16.2406 4.51531 15.8863C4.37823 15.7076 4.25352 15.5134 4.12641 15.3077C4.00374 15.1091 3.87163 14.8874 3.73715 14.6891C3.47403 14.3011 3.1153 13.8643 2.552 13.7164L2.29806 14.6836C2.48463 14.7326 2.66643 14.8919 2.9095 15.2503C3.02811 15.4253 3.14051 15.6145 3.27564 15.8332C3.40632 16.0448 3.5527 16.2744 3.72187 16.495C4.06261 16.9391 4.51498 17.3718 5.17913 17.591C5.84179 17.8097 6.646 17.7932 7.65024 17.4769L7.34981 16.5231ZM14 15.5125C14 14.6987 14.052 13.8402 13.3523 13.1453L12.6476 13.8547C12.9962 14.201 13 14.5763 13 15.5125H14ZM13.0534 13.9971C14.3014 13.863 15.5637 13.5658 16.5061 12.6903C17.464 11.8003 18 10.4025 18 8.2775H17C17 10.2423 16.507 11.3244 15.8254 11.9577C15.1284 12.6053 14.1406 12.8745 12.9465 13.0029L13.0534 13.9971ZM18 8.27589C17.9962 7.0907 17.5245 5.95496 16.6877 5.1157L15.9795 5.8218C16.6303 6.47439 16.997 7.35753 17 8.27911L18 8.27589ZM16.7997 5.64976C16.9991 5.13623 17.0948 4.58826 17.0811 4.03754L16.0814 4.06232C16.0918 4.48092 16.0191 4.89741 15.8675 5.28774L16.7997 5.64976ZM17.0811 4.03754C17.0675 3.48681 16.9448 2.94425 16.7201 2.44124L15.8071 2.84901C15.9778 3.23134 16.0711 3.64373 16.0814 4.06232L17.0811 4.03754ZM16.2636 2.64512C16.401 2.16436 16.4005 2.16423 16.4 2.16409C16.3999 2.16405 16.3994 2.16391 16.399 2.16382C16.3984 2.16364 16.3977 2.16345 16.397 2.16326C16.3957 2.16288 16.3943 2.16249 16.3928 2.1621C16.3898 2.1613 16.3866 2.16046 16.3832 2.1596C16.3763 2.15787 16.3685 2.15601 16.3598 2.1541C16.3423 2.15026 16.321 2.14618 16.296 2.14233C16.2458 2.13462 16.1807 2.12786 16.1002 2.12571C15.939 2.12141 15.7183 2.13565 15.4344 2.1963C14.8674 2.31745 14.051 2.62312 12.9508 3.33375L13.4934 4.17375C14.516 3.51325 15.2203 3.26461 15.6434 3.17423C15.8545 3.12912 15.9961 3.12329 16.0735 3.12535C16.1124 3.12639 16.1356 3.12943 16.144 3.13072C16.1482 3.13136 16.1488 3.13159 16.1458 3.13093C16.1443 3.1306 16.1419 3.13005 16.1386 3.12923C16.137 3.12882 16.1351 3.12834 16.1331 3.12778C16.132 3.1275 16.131 3.12721 16.1298 3.12689C16.1292 3.12674 16.1287 3.12657 16.1281 3.1264C16.1278 3.12632 16.1282 3.12644 16.1281 3.1264C16.1276 3.12627 16.1262 3.12589 16.2636 2.64512ZM13.3482 3.26992C11.4806 2.7831 9.5194 2.7831 7.65178 3.26992L7.904 4.23758C9.60624 3.79388 11.3938 3.79388 13.096 4.23758L13.3482 3.26992ZM8.0491 3.33369C6.94854 2.62311 6.13218 2.31745 5.56527 2.1963C5.28144 2.13565 5.06077 2.12141 4.89964 2.12571C4.81919 2.12786 4.7541 2.13462 4.70394 2.14234C4.67889 2.14619 4.65763 2.15028 4.64012 2.15412C4.63137 2.15603 4.62356 2.15789 4.61669 2.15962C4.61326 2.16049 4.61006 2.16133 4.6071 2.16213C4.60561 2.16252 4.60419 2.16291 4.60283 2.16329C4.60214 2.16348 4.60148 2.16367 4.60082 2.16385C4.6005 2.16395 4.60098 2.1638 4.60082 2.16385C4.60034 2.16398 4.59891 2.1644 4.73639 2.64512C4.87387 3.12585 4.87341 3.12598 4.87295 3.12612C4.8728 3.12616 4.87325 3.12604 4.87295 3.12612C4.87235 3.12629 4.87086 3.1267 4.87029 3.12686C4.86915 3.12718 4.86806 3.12747 4.86703 3.12775C4.86497 3.12831 4.86312 3.12879 4.86148 3.1292C4.85822 3.13003 4.85582 3.13058 4.85431 3.13091C4.85129 3.13157 4.85182 3.13135 4.85601 3.13071C4.86434 3.12943 4.88756 3.12639 4.92634 3.12535C5.00368 3.12329 5.1452 3.12911 5.35629 3.17422C5.77922 3.26461 6.48362 3.51326 7.50668 4.1738L8.0491 3.33369ZM4.27985 2.44124C4.05521 2.94425 3.93251 3.48681 3.91886 4.03754L4.91855 4.06232C4.92893 3.64373 5.02219 3.23134 5.19293 2.84901L4.27985 2.44124ZM3.91886 4.03754C3.90521 4.58826 4.00087 5.13623 4.20031 5.64976L5.13247 5.28774C4.98088 4.89741 4.90818 4.48092 4.91855 4.06232L3.91886 4.03754ZM4.31236 5.11567C3.89485 5.53431 3.56403 6.03119 3.33883 6.57787L4.26346 6.95875C4.43855 6.53368 4.69579 6.14733 5.02042 5.82183L4.31236 5.11567ZM3.33883 6.57787C3.11364 7.12455 2.9985 7.71029 3.00002 8.30153L4.00001 8.29897C3.99884 7.83925 4.08836 7.38382 4.26346 6.95875L3.33883 6.57787ZM3.00002 8.30025C3.00002 10.4117 3.53677 11.7967 4.49527 12.6806C5.43633 13.5484 6.69674 13.8476 7.94062 13.9965L8.05944 13.0035C6.86119 12.8601 5.87159 12.5895 5.17318 11.9455C4.4922 11.3175 4.00002 10.2488 4.00002 8.30025H3.00002ZM7.64707 13.1458C7.29109 13.5006 7.12194 13.9561 7.04435 14.3865C6.9667 14.8172 6.97378 15.261 7.00137 15.6366L7.99868 15.5634C7.97377 15.2242 7.9723 14.8756 8.02849 14.5639C8.08474 14.2518 8.19184 14.0147 8.35298 13.8542L7.64707 13.1458ZM7.00003 15.6V20.5H8.00003V15.6H7.00003ZM14 20.5V15.5125H13V20.5H14Z" fill="#82030C"/>
</g>
<defs>
<clipPath id="clip0_32_22">
<rect width="21" height="21" fill="white"/>
</clipPath>
</defs>
</svg>
