<svg width="43" height="42" viewBox="0 0 43 42" fill="none" xmlns="http://www.w3.org/2000/svg">
<g clip-path="url(#clip0_19_16)">
<path d="M39.085 30.4617L24.1167 15.4934C24.5481 13.5394 24.4295 11.5041 23.7741 9.61339C23.1187 7.72271 21.9522 6.05065 20.404 4.78285C18.8558 3.51505 16.9865 2.70112 15.0038 2.43143C13.021 2.16173 11.0022 2.44683 9.17165 3.25506L7.60832 3.94339L13.885 10.2201L10.595 13.5217L4.31832 7.24506L3.62999 8.79673C2.81714 10.6272 2.52854 12.6474 2.79635 14.6322C3.06416 16.617 3.87787 18.4885 5.14679 20.0381C6.4157 21.5876 8.08998 22.7544 9.98303 23.4083C11.8761 24.0623 13.9135 24.1777 15.8683 23.7417L30.8367 38.7101C31.0534 38.927 31.3107 39.0991 31.594 39.2165C31.8772 39.334 32.1809 39.3944 32.4875 39.3944C32.7941 39.3944 33.0978 39.334 33.381 39.2165C33.6643 39.0991 33.9216 38.927 34.1383 38.7101L39.085 33.7634C39.3019 33.5467 39.474 33.2893 39.5915 33.0061C39.7089 32.7228 39.7693 32.4192 39.7693 32.1126C39.7693 31.8059 39.7089 31.5023 39.5915 31.219C39.474 30.9358 39.3019 30.6784 39.085 30.4617ZM32.4817 37.0651L16.5683 21.1401L15.9033 21.3267C14.637 21.697 13.3017 21.7666 12.0037 21.5303C10.7056 21.2939 9.48067 20.7579 8.42613 19.965C7.37159 19.1722 6.51656 18.1442 5.92902 16.9629C5.34149 15.7815 5.03764 14.4794 5.04165 13.1601C5.04021 12.58 5.09886 12.0014 5.21665 11.4334L10.595 16.8117L17.1983 10.2084L11.82 4.84173C13.2549 4.54051 14.7434 4.6164 16.1402 5.062C17.537 5.50759 18.7945 6.30767 19.7899 7.38416C20.7853 8.46066 21.4846 9.7768 21.8197 11.2042C22.1548 12.6316 22.1141 14.1214 21.7017 15.5284L21.515 16.1934L37.44 32.1184L32.4817 37.0651Z" fill="#000715"/>
<path d="M33.0981 32.6797C33.6904 32.0874 33.6904 31.1271 33.0981 30.5349C32.5058 29.9426 31.5455 29.9426 30.9532 30.5349C30.3609 31.1272 30.3609 32.0874 30.9532 32.6797C31.5455 33.272 32.5058 33.272 33.0981 32.6797Z" fill="#000715"/>
</g>
<defs>
<clipPath id="clip0_19_16">
<rect width="42" height="42" fill="white" transform="translate(0.375)"/>
</clipPath>
</defs>
</svg>
