<svg width="43" height="42" viewBox="0 0 43 42" fill="none" xmlns="http://www.w3.org/2000/svg">
<path d="M7.375 10.5C7.375 9.2925 7.92625 8.23725 8.7295 7.385C9.52575 6.5415 10.6177 5.83975 11.8672 5.2815C14.368 4.15975 17.7297 3.5 21.375 3.5C25.0203 3.5 28.382 4.15975 30.8828 5.2815C32.1323 5.8415 33.2242 6.5415 34.0205 7.385C34.8237 8.23725 35.375 9.2925 35.375 10.5V19.8398C34.5548 19.4503 33.658 19.2488 32.75 19.25V14.686C32.19 15.071 31.56 15.4158 30.8828 15.7185C28.382 16.8403 25.0203 17.5 21.375 17.5C17.7297 17.5 14.368 16.8403 11.8672 15.7185C11.2152 15.4309 10.5902 15.0854 10 14.686V31.5C10 31.8622 10.1575 32.305 10.6387 32.8125C11.127 33.3305 11.8935 33.8555 12.94 34.3245C15.0312 35.2607 18.0133 35.875 21.375 35.875C21.9998 35.875 22.6105 35.854 23.2055 35.8138C23.3455 36.7028 23.6728 37.5725 24.1978 38.3652C23.2843 38.4528 22.3392 38.5 21.375 38.5C17.7297 38.5 14.368 37.8402 11.8672 36.7202C10.6177 36.1602 9.52575 35.4603 8.7295 34.615C7.92625 33.7628 7.375 32.7075 7.375 31.5V10.5ZM10 10.5C10 10.8622 10.1575 11.305 10.6387 11.8125C11.127 12.3305 11.8935 12.8555 12.94 13.3245C15.0312 14.2607 18.0133 14.875 21.375 14.875C24.7367 14.875 27.7188 14.2625 29.81 13.3245C30.8565 12.8555 31.623 12.3305 32.1112 11.8125C32.5925 11.305 32.75 10.8622 32.75 10.5C32.75 10.1378 32.5925 9.695 32.1112 9.1875C31.623 8.6695 30.8565 8.1445 29.81 7.6755C27.7188 6.73925 24.735 6.125 21.375 6.125C18.0133 6.125 15.0312 6.7375 12.94 7.6755C11.8935 8.1445 11.127 8.6695 10.6387 9.1875C10.1575 9.695 10 10.1378 10 10.5ZM37.125 25.375C37.125 26.5353 36.6641 27.6481 35.8436 28.4686C35.0231 29.2891 33.9103 29.75 32.75 29.75C31.5897 29.75 30.4769 29.2891 29.6564 28.4686C28.8359 27.6481 28.375 26.5353 28.375 25.375C28.375 24.2147 28.8359 23.1019 29.6564 22.2814C30.4769 21.4609 31.5897 21 32.75 21C33.9103 21 35.0231 21.4609 35.8436 22.2814C36.6641 23.1019 37.125 24.2147 37.125 25.375ZM40.625 34.7812C40.625 37.5042 38.3745 40.25 32.75 40.25C27.1255 40.25 24.875 37.5148 24.875 34.7812V34.601C24.875 32.886 26.2645 31.5 27.9777 31.5H37.5222C39.2372 31.5 40.625 32.8877 40.625 34.601V34.7812Z" fill="#200E00"/>
</svg>
