<svg width="43" height="42" viewBox="0 0 43 42" fill="none" xmlns="http://www.w3.org/2000/svg">
<path d="M13.5 18.375C14.9497 18.375 16.125 17.1997 16.125 15.75C16.125 14.3003 14.9497 13.125 13.5 13.125C12.0503 13.125 10.875 14.3003 10.875 15.75C10.875 17.1997 12.0503 18.375 13.5 18.375Z" fill="#200E00"/>
<path d="M21.375 14.4375C22.8247 14.4375 24 13.2622 24 11.8125C24 10.3628 22.8247 9.1875 21.375 9.1875C19.9253 9.1875 18.75 10.3628 18.75 11.8125C18.75 13.2622 19.9253 14.4375 21.375 14.4375Z" fill="#200E00"/>
<path d="M29.25 18.375C30.6997 18.375 31.875 17.1997 31.875 15.75C31.875 14.3003 30.6997 13.125 29.25 13.125C27.8003 13.125 26.625 14.3003 26.625 15.75C26.625 17.1997 27.8003 18.375 29.25 18.375Z" fill="#200E00"/>
<path d="M30.5625 26.25C32.0122 26.25 33.1875 25.0747 33.1875 23.625C33.1875 22.1753 32.0122 21 30.5625 21C29.1128 21 27.9375 22.1753 27.9375 23.625C27.9375 25.0747 29.1128 26.25 30.5625 26.25Z" fill="#200E00"/>
<path d="M25.3125 32.8125C26.7622 32.8125 27.9375 31.6372 27.9375 30.1875C27.9375 28.7378 26.7622 27.5625 25.3125 27.5625C23.8628 27.5625 22.6875 28.7378 22.6875 30.1875C22.6875 31.6372 23.8628 32.8125 25.3125 32.8125Z" fill="#200E00"/>
<path d="M22.0838 2.625C19.6117 2.52958 17.1459 2.93431 14.8341 3.81492C12.5223 4.69553 10.4121 6.0339 8.63003 7.74977C6.84797 9.46565 5.43075 11.5237 4.46331 13.8005C3.49588 16.0774 2.99816 18.5261 3.00001 21C2.99994 21.973 3.22431 22.9329 3.65566 23.805C4.08701 24.6772 4.71372 25.4381 5.48705 26.0285C6.26038 26.619 7.15949 27.0232 8.11446 27.2095C9.06943 27.3959 10.0545 27.3595 10.9931 27.1031L12.4631 26.6963C13.0479 26.5366 13.6616 26.5142 14.2565 26.6306C14.8514 26.7471 15.4114 26.9993 15.8928 27.3677C16.3742 27.7361 16.764 28.2106 17.032 28.7543C17.2999 29.2981 17.4387 29.8963 17.4375 30.5025V35.4375C17.4375 36.4818 17.8523 37.4833 18.5908 38.2217C19.3292 38.9602 20.3307 39.375 21.375 39.375C23.8489 39.3768 26.2976 38.8791 28.5745 37.9117C30.8513 36.9443 32.9094 35.527 34.6252 33.745C36.3411 31.9629 37.6795 29.8527 38.5601 27.5409C39.4407 25.2291 39.8454 22.7633 39.75 20.2913C39.5596 15.6669 37.6372 11.2832 34.3645 8.01052C31.0918 4.73783 26.7081 2.81544 22.0838 2.625ZM32.7281 31.9069C31.2626 33.4412 29.5006 34.6618 27.5489 35.4943C25.5973 36.3269 23.4968 36.7541 21.375 36.75C21.0269 36.75 20.6931 36.6117 20.4469 36.3656C20.2008 36.1194 20.0625 35.7856 20.0625 35.4375V30.5025C20.0625 28.762 19.3711 27.0928 18.1404 25.8621C16.9097 24.6314 15.2405 23.94 13.5 23.94C12.9102 23.941 12.3232 24.0205 11.7544 24.1763L10.2844 24.5831C9.73534 24.7303 9.15978 24.749 8.60233 24.6378C8.04489 24.5266 7.52055 24.2886 7.06995 23.942C6.61936 23.5955 6.25464 23.1499 6.00405 22.6397C5.75347 22.1295 5.62377 21.5684 5.62501 21C5.62338 18.8787 6.05027 16.779 6.88008 14.8268C7.70989 12.8745 8.9255 11.1101 10.454 9.63917C11.9825 8.16829 13.7923 7.02133 15.775 6.2671C17.7577 5.51287 19.8722 5.16692 21.9919 5.25C25.9388 5.45557 29.6697 7.11594 32.4644 9.91063C35.2591 12.7053 36.9194 16.4362 37.125 20.3831C37.2154 22.5041 36.872 24.6212 36.116 26.6049C35.36 28.5886 34.2072 30.3972 32.7281 31.92V31.9069Z" fill="#200E00"/>
</svg>
